<?xml version="1.0" standalone="no"?>
<!DOCTYPE svg PUBLIC "-//W3C//DTD SVG 20010904//EN"
 "http://www.w3.org/TR/2001/REC-SVG-20010904/DTD/svg10.dtd">
<svg version="1.0" xmlns="http://www.w3.org/2000/svg"
 width="800.000000pt" height="800.000000pt" viewBox="0 0 800.000000 800.000000"
 preserveAspectRatio="xMidYMid meet">
<metadata>
Created by potrace 1.14, written by Peter Selinger 2001-2017
</metadata>
<g transform="translate(0.000000,800.000000) scale(0.100000,-0.100000)"
fill="#000000" stroke="none">
<path d="M3510 7582 c0 -6 -43 -10 -96 -11 -53 -1 -100 -4 -105 -7 -5 -3 -9 1
-9 8 0 8 -3 9 -8 3 -4 -5 -23 -10 -42 -10 -19 0 -39 -2 -44 -4 -6 -3 -55 -6
-110 -7 -56 -1 -101 -3 -101 -4 0 -1 -28 -3 -61 -5 -34 -1 -66 -5 -73 -9 -6
-4 -11 -2 -11 5 0 8 -4 8 -12 2 -7 -6 -21 -9 -30 -8 -10 2 -21 -1 -24 -7 -4
-6 -10 -5 -15 3 -7 12 -9 12 -9 0 0 -11 -3 -11 -15 -1 -9 7 -15 8 -15 2 0 -11
-25 -10 -36 1 -4 4 -16 0 -26 -10 -11 -10 -18 -12 -18 -4 0 8 -5 9 -19 1 -14
-7 -22 -7 -26 0 -4 6 -12 7 -18 3 -6 -4 -23 -8 -37 -9 -14 -1 -45 -4 -70 -7
-71 -9 -172 -19 -206 -22 -17 -1 -36 -5 -42 -9 -7 -4 -12 -2 -12 6 0 8 -3 9
-8 3 -4 -6 -18 -12 -32 -13 -13 0 -30 -8 -36 -16 -6 -9 -13 -14 -15 -12 -4 5
-3 -141 2 -235 1 -30 -1 -61 -5 -67 -4 -7 -4 -12 1 -12 4 0 8 -102 8 -228 0
-125 3 -235 8 -244 4 -9 2 -20 -3 -23 -8 -5 -7 -11 1 -21 6 -8 7 -14 2 -14 -5
0 -10 -7 -10 -15 0 -8 4 -15 9 -15 11 0 6 -23 -7 -32 -6 -5 -5 -8 3 -8 10 0
10 -5 2 -20 -6 -11 -7 -20 -3 -20 4 0 8 -41 9 -90 0 -56 -4 -90 -10 -90 -6 0
-5 -4 3 -9 8 -5 12 -18 8 -30 -3 -12 -1 -24 5 -27 6 -4 5 -10 -3 -16 -11 -7
-11 -11 -1 -15 6 -2 9 -9 6 -15 -5 -8 -8 -110 -4 -135 5 -32 0 -264 -6 -274
-4 -7 -3 -10 2 -6 5 3 9 -52 9 -131 -1 -85 3 -140 10 -144 6 -5 5 -8 -4 -8
-11 0 -11 -3 -1 -15 10 -12 10 -15 0 -15 -9 0 -10 -3 -1 -13 8 -10 7 -17 -1
-25 -7 -7 -8 -12 -2 -12 6 0 11 -7 11 -15 0 -8 -5 -15 -10 -15 -6 0 -6 -5 1
-12 10 -14 10 -63 0 -73 -4 -4 -5 -12 -3 -18 11 -30 13 -67 4 -73 -5 -3 -6
-11 -2 -17 12 -19 11 -140 -1 -156 -8 -11 -8 -13 0 -8 9 5 11 -10 10 -50 0
-33 4 -62 11 -69 7 -6 10 -13 8 -16 -5 -4 24 -7 79 -8 21 0 45 -5 52 -10 8 -8
14 -8 19 0 4 7 12 7 26 0 13 -8 19 -7 19 0 0 6 5 8 11 4 6 -3 43 -8 83 -10 39
-2 89 -5 111 -6 22 -2 43 -7 47 -13 5 -6 8 -5 8 4 0 10 3 11 14 2 10 -8 16 -9
21 -1 3 6 11 8 16 4 14 -8 177 -19 446 -28 72 -2 141 -7 154 -11 15 -5 19 -4
14 5 -5 9 -3 9 11 2 11 -5 31 -8 47 -6 17 1 25 -1 21 -8 -4 -7 0 -7 12 0 11 5
37 7 59 5 22 -2 45 -5 50 -5 6 -1 23 2 38 6 15 3 27 3 27 -1 0 -5 55 -9 123
-10 67 0 189 -2 270 -3 l149 -2 -23 -24 c-12 -13 -18 -24 -13 -24 5 0 2 -5 -6
-10 -8 -5 -10 -10 -5 -10 13 0 13 -193 1 -202 -6 -4 -19 -2 -29 4 -14 7 -17 7
-13 -1 4 -6 3 -11 -3 -11 -5 0 -13 5 -16 10 -5 8 -11 8 -19 1 -7 -6 -15 -9
-18 -6 -2 3 -83 8 -179 11 -96 3 -190 6 -209 7 -45 3 -71 -20 -67 -59 2 -17 6
-34 8 -39 3 -6 12 -30 19 -55 7 -25 18 -51 24 -59 9 -12 8 -13 -4 -6 -12 7
-13 6 -4 -6 12 -15 39 -90 36 -100 -1 -4 7 -24 17 -45 11 -21 17 -46 16 -56
-2 -10 1 -18 7 -18 5 0 8 -6 5 -14 -3 -7 -2 -17 3 -22 7 -8 48 -126 54 -157 2
-7 6 -19 9 -27 10 -27 30 -95 29 -100 0 -3 4 -11 10 -17 6 -7 7 -13 3 -13 -4
0 -2 -7 5 -15 7 -8 9 -15 5 -15 -4 0 -1 -8 6 -17 12 -14 12 -15 0 -9 -8 6 -7
0 4 -18 9 -14 15 -33 11 -41 -3 -9 -2 -13 4 -10 6 3 10 -4 10 -17 0 -13 5 -29
11 -35 5 -5 11 -21 13 -34 2 -13 6 -31 9 -39 3 -8 15 -44 27 -80 11 -36 26
-73 31 -84 8 -13 7 -16 -1 -11 -7 4 -5 -4 4 -17 9 -14 13 -28 9 -31 -3 -4 -1
-7 5 -7 6 0 9 -6 6 -14 -3 -8 -1 -17 5 -20 6 -4 8 -13 4 -21 -3 -8 -1 -15 4
-15 5 0 10 -6 11 -12 3 -35 8 -54 14 -58 4 -3 9 -15 11 -25 13 -60 20 -85 26
-85 4 0 8 -11 9 -26 1 -14 6 -34 12 -44 6 -10 11 -30 12 -44 1 -13 6 -22 10
-20 7 4 13 -35 9 -58 0 -5 4 -8 10 -8 5 0 7 -5 4 -10 -3 -5 -2 -10 4 -10 5 0
8 -11 7 -25 -2 -13 0 -22 4 -20 4 3 11 -10 15 -28 4 -17 9 -39 12 -47 2 -8 5
-24 6 -35 2 -11 6 -25 10 -31 3 -6 3 -14 0 -18 -4 -3 -7 -14 -8 -24 -3 -40
-28 -122 -35 -117 -5 3 -6 -4 -3 -15 3 -12 0 -20 -6 -20 -7 0 -9 -5 -6 -10 4
-6 1 -17 -5 -25 -10 -12 -10 -15 1 -15 10 -1 9 -4 -3 -14 -10 -7 -15 -15 -12
-18 3 -3 -2 -22 -10 -42 -8 -20 -15 -39 -16 -41 0 -3 0 -6 -1 -7 -1 -3 -6 -25
-12 -51 -2 -6 -8 -22 -15 -33 -6 -12 -9 -24 -5 -27 3 -4 1 -13 -5 -20 -7 -8
-9 -17 -5 -20 3 -4 1 -7 -6 -7 -7 0 -10 -4 -7 -8 2 -4 -4 -35 -15 -67 -11 -33
-21 -67 -23 -75 -1 -8 -13 -49 -26 -90 -14 -41 -23 -78 -22 -82 1 -5 -3 -8 -9
-8 -5 0 -7 -5 -4 -10 4 -6 1 -17 -5 -25 -7 -8 -9 -15 -6 -15 4 0 1 -10 -6 -22
-6 -13 -13 -30 -14 -38 -5 -44 -16 -86 -25 -95 -5 -5 -9 -16 -9 -25 0 -8 -7
-27 -14 -43 -10 -18 -11 -27 -3 -27 8 0 8 -3 -1 -12 -7 -7 -12 -20 -12 -31 0
-11 -4 -15 -12 -11 -6 4 -8 3 -5 -3 4 -6 0 -29 -7 -51 -8 -22 -12 -43 -9 -46
4 -3 2 -6 -3 -6 -5 0 -10 -8 -11 -18 -1 -9 -8 -37 -17 -62 -9 -25 -16 -53 -16
-62 0 -10 -4 -18 -9 -18 -5 0 -8 -12 -8 -27 -1 -15 -5 -29 -11 -31 -6 -2 -8
-10 -6 -17 3 -8 2 -20 -2 -27 -9 -14 -12 -24 -16 -53 -2 -11 -9 -24 -16 -28
-7 -5 -10 -13 -6 -18 3 -5 1 -16 -6 -24 -6 -7 -10 -19 -9 -27 1 -7 -4 -26 -11
-43 -15 -35 -16 -40 -18 -78 -1 -19 -6 -26 -14 -21 -6 4 -9 3 -6 -2 3 -5 1
-20 -5 -34 -18 -46 -19 -96 -2 -110 18 -15 55 -21 55 -10 0 3 16 6 35 5 19 -1
35 1 35 4 0 4 20 6 45 6 24 -1 42 2 40 6 -3 3 8 7 23 7 30 0 127 9 127 12 0 3
37 7 110 14 28 3 50 6 50 7 0 3 46 8 92 11 24 2 43 5 43 9 0 3 10 5 23 6 21 0
62 5 157 19 25 3 52 6 60 7 8 0 20 3 25 6 6 4 31 6 57 6 27 0 48 3 48 8 0 4
11 5 25 3 15 -3 25 0 25 7 0 8 3 8 12 -1 7 -7 17 -8 28 -2 9 5 38 11 65 14 26
2 51 10 56 17 14 21 -3 129 -20 129 -3 0 -7 14 -8 31 -1 17 -8 37 -14 45 -6 8
-8 14 -4 14 4 0 2 7 -5 15 -6 8 -9 19 -5 25 3 5 2 10 -3 10 -5 0 -9 6 -10 13
-2 24 -8 47 -15 53 -4 4 -7 16 -7 26 0 10 -4 18 -8 18 -4 0 -8 10 -9 23 0 28
-6 51 -14 57 -4 3 -9 16 -10 30 -2 14 -8 28 -13 31 -5 4 -8 18 -8 33 0 14 -4
26 -8 26 -3 0 -7 7 -8 15 -1 8 -3 22 -4 30 -1 8 -4 15 -8 15 -4 0 -7 6 -8 13
-2 24 -8 47 -15 53 -4 4 -7 17 -7 29 0 11 -4 25 -9 30 -6 6 -12 21 -14 35 -5
29 -14 57 -28 83 -5 10 -7 22 -4 27 4 6 2 10 -4 10 -6 0 -8 6 -5 14 3 8 0 17
-5 21 -6 3 -9 11 -6 16 4 5 2 9 -4 9 -6 0 -8 7 -5 15 4 8 2 15 -3 15 -5 0 -9
8 -10 18 -1 11 -13 54 -27 97 -14 43 -23 82 -20 86 3 5 1 9 -4 9 -9 0 -24 38
-27 71 -1 9 -6 23 -11 30 -5 8 -10 23 -11 34 -2 10 -7 22 -12 25 -4 3 -7 13
-6 22 2 9 -3 28 -11 43 -8 15 -16 38 -18 51 -3 13 -7 27 -10 32 -3 5 -7 22
-10 38 -3 16 -10 30 -15 32 -6 2 -7 10 -4 18 3 8 0 14 -7 14 -6 0 -9 4 -6 9 3
5 -1 28 -10 52 -14 40 -21 64 -28 95 -1 7 -8 20 -16 30 -13 16 -13 17 0 9 11
-6 12 -5 4 4 -9 9 -8 24 3 59 8 26 15 53 16 60 0 6 4 12 8 12 4 0 6 9 4 20 -2
11 0 20 6 20 5 0 8 3 8 8 -1 4 0 10 1 15 4 13 6 21 14 60 5 20 12 37 16 37 5
0 7 11 5 25 -1 14 2 25 6 25 5 0 9 12 9 26 0 14 4 23 9 20 4 -3 8 2 8 12 -2
29 14 82 22 77 5 -2 7 7 5 20 -1 14 2 25 7 25 5 0 9 5 9 11 0 5 -5 7 -11 3 -6
-3 -4 4 5 18 8 13 18 35 20 48 2 14 5 26 7 28 1 1 3 7 4 12 1 6 3 11 5 13 1 1
3 10 6 20 7 31 11 42 23 70 6 16 9 33 5 38 -3 5 0 9 7 9 7 0 9 3 6 7 -4 3 -2
12 4 20 6 7 9 13 5 13 -3 0 -1 12 5 28 6 15 13 36 15 47 10 41 13 50 14 53 2
1 4 7 5 12 1 6 4 12 5 15 1 3 3 8 5 13 1 4 4 14 7 22 22 65 27 84 22 91 -3 5
-1 9 5 9 5 0 12 18 16 40 4 22 10 40 13 40 4 0 8 14 9 32 1 17 6 34 10 37 8 6
14 24 16 53 1 10 5 18 10 18 4 0 5 4 2 10 -3 5 1 23 10 40 8 16 13 30 11 30
-2 0 4 25 15 55 10 30 19 64 19 75 0 11 4 20 10 20 5 0 9 3 8 8 -3 13 14 77
24 90 6 6 7 12 3 12 -4 0 -2 6 4 13 6 8 8 17 4 20 -3 4 -1 13 6 20 6 8 12 26
13 41 1 14 6 26 11 26 4 0 6 4 3 8 -3 5 1 20 8 33 11 22 10 29 -6 49 -18 22
-27 24 -112 25 -51 1 -98 5 -104 9 -7 4 -12 3 -12 -2 0 -5 -7 -9 -15 -9 -8 0
-15 5 -15 11 0 6 -5 4 -10 -4 -5 -8 -10 -10 -10 -5 0 6 -54 11 -138 13 -182 3
-175 1 -178 45 -1 23 3 37 10 37 7 0 7 3 1 8 -12 8 -17 134 -5 127 5 -3 3 6
-3 20 -7 14 -15 25 -19 25 -5 0 -8 4 -8 8 0 5 190 9 421 10 232 1 431 4 442 8
15 5 17 3 11 -7 -6 -11 -5 -12 7 -3 8 5 40 10 71 10 32 -1 58 3 58 9 0 6 5 3
10 -5 8 -13 10 -13 10 0 0 10 3 11 11 3 7 -7 21 -8 43 -2 19 6 32 5 34 0 2 -6
12 -7 26 -1 13 4 29 4 37 0 8 -6 16 -5 20 2 6 9 11 9 22 0 7 -7 17 -9 21 -5 7
7 29 9 223 16 51 2 96 6 99 10 3 3 17 2 30 -3 15 -6 26 -6 30 1 4 7 10 7 18 0
7 -6 16 -8 20 -4 3 4 48 8 99 10 67 3 94 8 100 19 5 8 12 12 16 10 4 -3 7 15
7 39 -1 25 4 45 9 45 6 0 3 5 -5 10 -11 7 -12 12 -3 21 7 7 8 21 3 40 -5 16
-5 29 -1 29 4 0 8 7 8 15 0 8 -3 15 -7 15 -8 0 -5 49 4 57 3 3 1 14 -5 24 -5
11 -6 19 -2 19 4 0 7 69 5 152 -1 84 -2 158 -2 163 0 6 2 80 3 167 1 101 6
154 12 150 6 -3 4 1 -2 9 -10 12 -10 18 -1 27 9 9 9 12 1 12 -8 0 -9 9 -3 30
5 18 5 32 -1 36 -6 4 -6 10 0 18 7 9 7 16 -1 24 -7 7 -8 12 -2 12 5 0 8 38 7
87 -1 55 3 93 10 102 9 11 9 13 0 8 -15 -9 -15 103 1 122 8 11 8 13 0 8 -16
-9 -15 83 0 102 7 10 7 13 0 8 -12 -7 -14 270 -1 289 3 6 3 14 0 18 -12 11
-10 106 1 106 6 0 5 4 -2 9 -17 11 -18 12 -4 37 6 11 7 26 2 34 -4 7 -4 24 1
37 5 15 5 23 -2 23 -6 0 -6 7 1 20 6 12 7 20 1 20 -7 0 -8 28 -1 38 7 7 5 29
-3 40 -6 8 -6 12 1 12 6 0 10 9 9 20 -1 11 -5 20 -10 20 -4 0 -5 6 0 13 4 6 8
75 8 152 0 157 -4 168 -65 173 -32 2 -75 9 -75 12 0 0 -36 3 -80 6 -142 8
-150 9 -164 18 -10 7 -12 6 -6 -4 6 -10 4 -11 -6 -4 -8 5 -41 10 -74 11 -33 1
-60 2 -60 3 0 1 -22 3 -50 5 -27 2 -50 4 -50 5 0 1 -29 3 -65 6 -113 6 -145
10 -157 17 -6 4 -14 4 -17 -1 -4 -6 -81 -8 -81 -2 0 4 -89 8 -205 10 -58 2
-115 6 -128 11 -15 6 -21 5 -17 -1 8 -12 8 -12 -32 -1 -21 6 -35 6 -39 0 -4
-6 -11 -6 -20 2 -11 9 -14 8 -14 -2 0 -9 -3 -10 -8 -4 -8 12 -989 14 -1009 2
-6 -4 -13 -2 -15 5 -3 7 -9 8 -18 3 -18 -11 -51 -12 -68 -1 -6 4 -12 3 -12 -2z
m450 -74 c0 10 5 10 20 2 15 -8 20 -8 20 1 0 8 4 9 13 0 8 -6 17 -8 20 -5 5 5
93 8 112 4 18 -4 167 -1 172 4 3 3 13 2 22 -2 9 -4 55 -7 103 -7 47 0 84 -3
81 -8 -3 -5 3 -5 13 0 11 6 30 7 44 3 14 -4 33 -3 43 2 10 5 17 5 17 -1 0 -6
11 -6 30 -1 17 5 30 6 30 2 0 -4 33 -6 72 -6 40 1 81 -2 90 -7 10 -5 19 -5 23
0 3 5 18 6 33 3 15 -4 43 -7 62 -7 19 0 38 -4 42 -10 5 -7 8 -6 8 1 0 12 49
13 67 1 6 -4 15 -3 18 3 4 6 12 7 18 3 7 -5 37 -8 67 -8 30 0 58 -4 62 -10 5
-6 8 -5 8 3 0 7 4 11 9 8 10 -7 94 -16 171 -19 30 -1 61 -6 68 -10 7 -5 12 -4
12 2 0 6 11 7 28 2 15 -4 37 -6 50 -5 12 1 22 -4 22 -10 0 -7 3 -7 8 -1 9 12
32 18 32 8 0 -5 28 -9 62 -11 33 -1 68 -8 76 -15 12 -9 14 -9 9 0 -6 9 1 12
23 10 16 -1 30 -5 30 -9 0 -3 16 -5 35 -4 21 2 35 -1 35 -8 0 -6 5 -4 10 4 8
12 10 12 11 -5 0 -11 2 -37 4 -57 2 -26 -1 -36 -9 -31 -7 4 -7 1 1 -7 9 -10
10 -17 2 -27 -7 -7 -7 -13 -2 -13 5 0 10 -7 10 -15 0 -8 -4 -15 -9 -15 -5 0
-4 -9 2 -19 7 -14 7 -22 0 -26 -6 -4 -7 -12 -3 -18 10 -16 10 -86 1 -80 -5 2
-4 -6 0 -19 8 -22 7 -80 -2 -104 -2 -6 0 -17 4 -25 5 -8 4 -19 -2 -26 -7 -9
-7 -13 1 -13 9 0 9 -5 1 -20 -6 -12 -7 -20 -1 -20 6 0 6 -11 1 -30 -6 -21 -5
-30 3 -30 8 0 7 -3 -2 -9 -8 -5 -9 -11 -3 -15 10 -6 11 -22 1 -41 -2 -5 -5
-88 -4 -182 0 -109 -4 -173 -10 -173 -5 0 -4 -4 3 -9 17 -11 17 -21 0 -32 -7
-5 -8 -9 -3 -9 6 0 10 -13 10 -30 0 -16 -4 -30 -8 -30 -5 0 -5 -5 -1 -12 4 -7
7 -30 6 -52 -4 -76 -1 -219 4 -227 2 -4 0 -10 -5 -13 -4 -3 -5 -24 -1 -46 4
-22 5 -40 1 -40 -3 0 -6 -125 -5 -278 0 -152 -3 -284 -7 -293 -5 -9 -3 -21 3
-27 9 -9 8 -12 -2 -12 -12 0 -12 -2 -2 -9 17 -11 17 -21 0 -32 -7 -5 -8 -9 -2
-9 7 0 10 -12 7 -27 -2 -16 -5 -38 -7 -50 -2 -13 1 -23 7 -23 5 0 4 -7 -3 -15
-9 -11 -9 -15 -1 -15 7 0 9 -5 5 -12 -4 -7 -8 -45 -7 -85 0 -40 -4 -70 -8 -67
-5 3 -9 2 -9 -3 0 -4 -30 -8 -68 -8 -37 1 -79 -2 -94 -6 -17 -5 -28 -4 -28 2
0 6 -8 8 -17 5 -49 -15 -87 -16 -94 -4 -5 8 -9 8 -9 2 0 -11 -41 -14 -222 -17
-54 -1 -98 -5 -98 -10 0 -4 -8 -3 -19 2 -10 6 -21 7 -25 4 -9 -9 -57 -10 -62
-1 -3 5 -13 4 -22 0 -9 -5 -64 -8 -122 -8 -61 1 -108 -3 -112 -9 -5 -6 -8 -7
-8 0 0 11 -81 12 -99 1 -6 -4 -11 -4 -11 1 0 8 -18 8 -155 2 -33 -2 -66 0 -73
4 -7 5 -12 3 -12 -4 0 -8 -5 -7 -17 2 -9 8 -14 9 -11 4 4 -6 -12 -10 -42 -10
-27 0 -46 4 -43 9 4 5 0 6 -8 0 -19 -11 -101 -13 -116 -2 -6 5 -14 5 -18 -2
-3 -5 -11 -10 -16 -10 -6 0 -7 5 -3 12 5 7 3 8 -6 3 -14 -9 -256 -9 -270 0 -6
3 -10 2 -10 -4 0 -7 -8 -7 -25 -1 -18 7 -25 6 -25 -3 0 -8 -4 -7 -10 3 -9 13
-11 13 -20 0 -8 -12 -10 -12 -10 -1 0 10 -3 11 -14 2 -11 -9 -15 -9 -19 1 -4
10 -8 10 -16 -2 -6 -8 -11 -10 -11 -5 0 6 -62 10 -165 10 -91 0 -165 2 -165 5
0 3 -75 6 -166 7 -117 2 -171 6 -182 15 -12 10 -14 10 -8 1 5 -9 -2 -12 -26
-10 -18 2 -39 6 -46 11 -7 4 -12 2 -12 -4 0 -6 -5 -8 -12 -4 -7 4 -43 7 -80 7
-49 -1 -66 2 -61 10 5 8 2 8 -9 0 -8 -7 -17 -11 -20 -8 -3 3 -48 6 -101 7 -52
2 -93 7 -90 11 3 5 -3 5 -13 0 -17 -8 -40 -10 -46 -3 -3 2 -27 4 -148 10 -30
2 -61 8 -67 13 -8 5 -13 6 -13 0 0 -5 -9 -9 -20 -9 -11 0 -20 3 -20 6 0 3 -26
6 -58 6 -86 2 -92 3 -92 15 0 5 4 8 9 4 6 -3 7 6 2 22 -4 16 -6 63 -6 106 0
44 -3 77 -9 77 -6 0 -5 5 2 12 7 7 8 17 2 29 -7 12 -6 20 0 24 8 5 7 11 -1 21
-9 11 -8 14 2 14 10 0 10 3 1 12 -7 7 -8 17 -2 29 7 11 7 20 0 24 -7 4 -7 12
0 24 5 10 7 21 4 24 -10 10 -11 57 -2 57 5 0 6 6 2 12 -12 19 -12 48 0 48 7 0
7 3 1 8 -13 9 -14 65 0 74 7 5 7 8 0 8 -7 0 -10 51 -10 140 0 86 -4 140 -10
141 -5 0 -1 4 10 9 11 5 15 9 8 9 -7 1 -11 19 -10 51 1 28 -2 50 -6 50 -4 0
-3 9 3 20 6 11 7 20 3 20 -11 0 -9 42 2 60 5 7 4 11 -1 8 -5 -4 -9 98 -9 245
0 139 -3 262 -7 273 -4 12 -1 27 5 33 8 8 8 11 -2 11 -7 0 -9 5 -6 11 11 17
13 59 2 59 -5 0 -4 6 2 14 9 11 9 16 0 21 -8 6 -7 10 2 16 11 7 11 9 1 9 -8 0
-11 12 -7 40 2 21 0 42 -5 45 -5 3 -7 12 -4 20 4 8 11 12 18 8 6 -4 5 1 -3 10
-7 9 -11 24 -7 32 3 8 0 15 -7 15 -8 0 -9 2 -1 8 8 5 9 25 4 60 -3 29 -3 55 2
58 5 3 6 9 4 13 -3 4 -5 54 -5 112 0 57 -1 119 -1 137 0 19 4 32 12 33 7 0 21
2 31 4 9 2 17 -1 17 -6 0 -6 9 -5 21 1 11 7 45 12 75 13 30 1 54 6 54 11 0 5
6 3 14 -3 9 -7 17 -8 20 -2 3 5 17 8 31 6 14 -1 25 1 25 4 0 3 25 6 55 5 30 0
55 3 55 6 0 11 44 6 52 -5 5 -6 8 -5 8 2 0 8 11 11 30 9 17 -2 30 1 30 8 0 6
4 5 9 -3 5 -8 11 -9 15 -3 3 5 22 9 41 7 20 -1 35 3 35 9 0 7 3 7 8 1 8 -11
52 -15 52 -5 0 3 32 7 72 8 40 2 74 5 77 7 2 3 10 0 17 -6 8 -6 14 -7 18 0 4
6 13 8 21 5 7 -3 23 0 35 6 17 9 21 9 15 0 -5 -9 -2 -10 11 -3 23 10 45 10 61
0 6 -4 14 -3 17 2 3 5 33 8 66 7 33 -1 60 2 60 7 0 5 6 4 13 -2 8 -6 17 -7 21
-3 4 4 47 7 95 8 48 0 93 4 99 8 7 4 12 2 12 -4 0 -6 4 -9 9 -5 17 10 71 13
71 3 0 -5 4 -7 9 -3 19 11 71 12 71 1 0 -8 2 -8 8 0 4 6 38 10 80 10 41 -1 76
3 79 7 3 5 9 3 14 -4 7 -11 9 -11 9 -1z m-200 -3040 c43 -1 70 -6 70 -12 0 -6
4 -5 9 3 6 9 10 10 16 2 5 -9 10 -9 21 0 11 9 14 9 14 -1 0 -10 3 -10 15 0 9
8 15 8 15 2 0 -7 10 -8 29 -2 16 4 32 6 35 3 3 -3 24 -6 48 -7 24 0 41 -3 39
-6 -2 -3 1 -15 7 -27 8 -15 9 -24 2 -28 -8 -5 -7 -11 1 -21 9 -11 8 -14 -2
-14 -9 0 -10 -3 -2 -11 7 -7 8 -21 3 -40 -5 -17 -5 -31 1 -34 5 -4 5 -14 -1
-25 -6 -10 -6 -21 -1 -24 7 -5 7 -33 0 -73 -1 -4 0 -10 1 -13 7 -15 5 -80 -2
-80 -5 0 -6 -5 -3 -10 4 -6 8 -22 11 -36 3 -18 1 -23 -7 -18 -8 5 -9 3 -3 -7
4 -7 9 -127 10 -266 1 -138 5 -257 9 -262 3 -6 1 -11 -5 -11 -6 0 -8 -5 -4
-12 10 -16 12 -488 2 -482 -5 3 -6 9 -3 14 3 4 1 10 -5 12 -5 1 -12 19 -14 38
-2 19 -8 34 -14 33 -5 -1 -8 11 -7 27 1 16 -1 27 -6 24 -5 -3 -9 1 -10 8 -1
25 -9 56 -20 84 -13 32 -18 50 -22 79 -1 11 -7 26 -14 33 -7 7 -10 19 -7 27 4
8 2 15 -3 15 -5 0 -10 7 -11 15 -1 8 -3 22 -4 30 -1 8 -4 15 -7 15 -4 0 -8 12
-9 26 -1 15 -6 32 -11 38 -9 12 -26 76 -23 89 1 4 -2 7 -7 7 -6 0 -8 9 -6 20
2 11 0 20 -5 20 -5 0 -12 15 -16 33 -4 17 -9 35 -10 40 -1 4 -3 9 -4 12 -1 3
-3 8 -5 13 -1 4 -4 14 -8 22 -3 8 -7 24 -9 35 -2 11 -6 23 -10 26 -5 3 -9 17
-10 32 -1 15 -7 27 -12 27 -5 0 -7 3 -4 6 3 3 -2 29 -12 57 -10 28 -16 55 -14
59 3 5 1 8 -4 8 -6 0 -30 72 -35 107 0 5 -6 19 -13 32 -7 14 -11 28 -8 33 3 4
1 8 -5 8 -6 0 -8 7 -5 15 4 8 1 15 -5 15 -6 0 -8 6 -5 14 3 8 1 17 -5 21 -6 3
-11 19 -11 36 0 16 -4 29 -10 29 -5 0 -10 11 -10 25 0 14 -6 25 -12 26 -9 0
-9 2 1 6 8 3 10 8 3 12 -6 3 -13 19 -16 34 -2 14 -8 32 -13 39 -16 26 -11 37
18 36 16 -1 32 2 36 5 3 4 9 4 14 1 5 -2 40 -5 79 -6z m430 -17 c0 -6 12 -6
30 -1 17 5 30 6 30 2 0 -4 37 -7 83 -7 45 1 92 -2 103 -6 12 -4 26 -3 32 3 8
8 15 8 27 -2 11 -9 15 -9 15 -1 0 8 6 9 18 3 9 -4 43 -8 74 -7 31 0 54 -3 52
-7 -3 -4 0 -8 7 -8 8 0 9 -3 0 -14 -6 -7 -12 -25 -13 -40 -1 -14 -7 -26 -12
-26 -5 0 -7 -3 -3 -6 3 -4 0 -22 -8 -40 -8 -19 -15 -38 -16 -42 -1 -4 -5 -18
-10 -30 -5 -13 -7 -28 -3 -33 3 -5 0 -9 -5 -9 -6 0 -10 -3 -10 -7 1 -5 0 -10
-1 -13 -3 -8 -10 -43 -13 -65 -2 -11 -9 -30 -15 -42 -7 -12 -12 -29 -12 -37 0
-9 -4 -16 -9 -16 -4 0 -7 -11 -6 -25 2 -14 0 -25 -4 -25 -4 0 -8 -6 -9 -12 -2
-22 -7 -43 -15 -55 -4 -6 -8 -23 -9 -37 -1 -14 -5 -26 -9 -26 -3 0 -6 -6 -7
-12 0 -7 -3 -20 -5 -28 -2 -8 -7 -28 -12 -45 -4 -16 -12 -36 -18 -42 -5 -7 -7
-13 -3 -13 3 0 0 -16 -8 -35 -8 -19 -13 -35 -10 -35 3 0 2 -6 -3 -12 -4 -7 -8
-16 -9 -20 -1 -5 -2 -9 -4 -10 -1 -2 -4 -16 -6 -33 -3 -16 -9 -32 -13 -35 -5
-3 -7 -13 -5 -22 1 -10 -3 -18 -9 -18 -5 0 -7 -3 -4 -7 4 -3 0 -17 -9 -31 -9
-13 -11 -21 -5 -18 6 4 11 2 11 -3 0 -6 -4 -11 -9 -11 -8 0 -26 -66 -23 -82 1
-5 -3 -8 -8 -8 -5 0 -9 -3 -8 -7 4 -14 -24 -113 -32 -118 -5 -3 -7 -14 -5 -25
2 -11 -1 -20 -6 -20 -6 0 -8 -4 -4 -9 3 -5 1 -12 -5 -16 -6 -4 -8 -11 -5 -16
4 -5 2 -9 -2 -9 -5 0 -10 -9 -11 -20 -4 -44 -6 -50 -14 -50 -5 0 -6 -5 -3 -10
4 -6 1 -17 -5 -25 -6 -8 -9 -19 -5 -25 3 -5 2 -10 -2 -10 -5 0 -10 -15 -11
-32 -2 -18 -10 -40 -19 -48 -14 -13 -15 -13 -7 0 12 22 14 40 3 40 -6 0 -5 8
1 20 6 11 7 20 3 20 -4 0 -8 88 -8 196 0 108 -3 198 -7 200 -4 3 -3 16 2 29 6
15 6 27 0 30 -6 3 -6 15 0 29 5 13 6 26 3 29 -9 10 -9 117 1 117 5 0 5 5 0 13
-5 6 -9 120 -9 252 0 149 -4 243 -10 247 -6 5 -5 8 3 8 9 0 10 5 3 18 -6 11
-6 24 -1 32 5 9 5 19 -2 27 -6 7 -6 13 -1 13 5 0 8 12 7 28 -1 15 -3 27 -4 27
-7 0 -6 36 1 41 5 3 6 11 2 17 -11 17 -11 77 -1 83 5 3 5 11 0 17 -9 13 -9 24
2 50 9 18 26 24 26 8z m15 -2132 c-2 -10 1 -19 7 -19 5 0 8 -7 4 -15 -3 -8 -1
-15 5 -15 6 0 7 -4 4 -10 -3 -5 -1 -10 5 -10 6 0 8 -5 5 -10 -4 -6 -1 -17 5
-25 7 -8 9 -15 5 -15 -4 0 -2 -7 5 -15 7 -8 9 -15 5 -15 -4 0 -2 -7 5 -15 9
-11 10 -15 1 -15 -8 0 -7 -5 2 -15 9 -8 14 -23 13 -32 -2 -10 4 -24 11 -32 8
-8 12 -22 10 -32 -3 -11 -2 -19 2 -19 7 0 33 -81 29 -91 -2 -3 2 -12 8 -20 6
-8 17 -35 24 -61 7 -27 17 -48 23 -48 5 0 4 -7 -3 -15 -10 -12 -9 -16 4 -21 9
-3 13 -10 10 -15 -3 -5 -2 -15 3 -21 4 -7 9 -24 11 -38 2 -14 7 -26 13 -28 5
-2 9 -17 9 -32 0 -16 4 -31 9 -34 8 -6 26 -73 23 -88 -1 -5 3 -8 9 -8 5 0 8
-4 4 -9 -3 -5 0 -13 6 -16 5 -4 8 -13 5 -21 -3 -7 0 -19 7 -26 7 -7 12 -20 12
-28 -1 -8 3 -21 8 -27 5 -7 6 -13 2 -13 -4 0 -2 -6 4 -14 6 -7 12 -25 13 -40
1 -14 6 -26 10 -26 4 0 8 -10 8 -22 0 -13 9 -42 20 -66 11 -25 14 -40 7 -35
-9 5 -9 3 -1 -8 11 -14 34 -77 34 -92 0 -4 7 -21 15 -37 8 -16 15 -32 15 -35
1 -20 14 -66 21 -71 4 -2 6 -11 2 -19 -3 -8 -1 -15 5 -15 6 0 9 -8 7 -17 -2
-10 -4 -20 -4 -23 -1 -5 -61 -12 -118 -14 -18 -1 -33 -4 -33 -8 0 -3 -8 -5
-17 -3 -10 1 -26 -2 -35 -7 -12 -6 -18 -5 -18 2 0 6 -5 8 -12 3 -7 -4 -20 -9
-28 -10 -27 -5 -105 -14 -132 -15 -16 -1 -28 -5 -28 -8 0 -4 -10 -5 -22 -3
-23 4 -23 7 -23 154 0 83 -3 155 -6 161 -4 6 -4 21 1 33 5 12 5 28 0 35 -5 7
-4 24 1 37 5 12 5 23 1 23 -4 0 -8 9 -8 20 0 11 4 20 9 20 5 0 5 6 0 12 -13
16 -13 48 -1 48 5 0 4 8 -1 18 -6 10 -6 24 -1 32 5 8 6 19 2 25 -11 16 -8 75
3 75 6 0 6 3 0 8 -12 8 -14 76 -3 88 4 4 4 12 1 18 -11 18 -11 136 0 129 6 -4
7 -1 1 8 -5 8 -9 78 -10 157 -1 78 -4 145 -8 149 -3 3 -1 12 5 19 7 8 7 14 -1
19 -7 4 -7 13 1 27 8 15 8 19 0 14 -6 -4 -11 -3 -11 3 0 5 5 13 10 16 8 5 8
11 0 20 -8 9 -8 15 0 20 6 3 7 11 4 17 -4 6 -8 51 -8 99 -1 67 1 85 11 78 6
-6 10 -19 8 -30z m-98 -44 c-1 -25 3 -45 8 -46 6 0 5 -3 -1 -5 -7 -3 -8 -20
-4 -49 4 -25 4 -45 0 -45 -4 0 -6 -10 -4 -22 8 -48 9 -258 1 -258 -5 0 -5 -5
-1 -11 4 -7 8 -95 8 -198 1 -102 5 -192 9 -199 5 -6 4 -12 -1 -12 -10 0 -9
-30 1 -47 4 -6 2 -13 -5 -15 -7 -3 -8 -9 -3 -18 12 -19 14 -50 4 -56 -5 -2 -4
-16 1 -29 6 -17 6 -25 -1 -25 -6 0 -7 -5 -3 -11 11 -19 11 -109 0 -109 -8 0
-8 -3 -1 -8 6 -4 11 -25 11 -47 0 -22 -5 -43 -11 -47 -7 -5 -7 -8 0 -8 12 0
14 -69 2 -87 -4 -6 -4 -14 1 -16 4 -3 7 -38 7 -79 -1 -62 -3 -73 -18 -72 -9 1
-17 -1 -17 -5 0 -4 -21 -7 -46 -7 -25 1 -48 -2 -51 -7 -2 -4 -8 -5 -13 -2 -5
3 -12 0 -16 -6 -4 -8 -9 -7 -15 2 -5 8 -9 9 -9 4 0 -6 -12 -10 -27 -10 -16 1
-32 -1 -37 -4 -5 -2 -21 -5 -35 -7 -84 -9 -176 -21 -176 -24 0 -1 -14 -2 -30
-3 -28 -2 -30 0 -27 25 2 15 9 25 14 22 6 -4 8 2 3 15 -4 13 -2 21 5 21 6 0 9
4 6 9 -3 5 1 25 9 45 8 20 12 36 9 36 -4 0 -1 7 6 15 6 8 9 19 5 25 -3 5 -2
10 3 10 5 0 9 7 10 15 1 8 3 22 4 30 1 8 6 15 11 15 6 0 8 3 4 6 -3 3 -1 18 5
33 5 14 12 37 15 51 2 14 8 26 13 28 4 2 6 12 3 22 -3 11 -1 20 4 20 5 0 10 8
11 18 3 31 7 47 15 60 5 6 5 17 2 22 -3 6 -1 10 4 10 6 0 11 8 11 18 0 9 7 30
15 45 8 15 10 25 6 22 -5 -3 -1 17 9 44 11 27 16 51 13 55 -4 3 -1 6 5 6 7 0
11 3 10 8 -1 8 10 58 19 82 4 8 7 18 8 23 2 4 3 8 4 10 2 1 5 13 7 26 2 14 11
38 19 53 7 16 9 26 4 22 -7 -4 -7 0 0 12 14 27 23 55 28 84 2 14 8 27 14 28 5
2 7 8 3 13 -3 5 -2 15 3 22 4 6 9 21 10 31 2 11 7 24 12 30 5 6 7 19 6 29 -2
9 0 17 5 17 7 0 17 36 22 78 1 6 5 12 10 12 5 0 6 5 3 10 -3 6 -3 16 2 23 8
12 13 32 15 55 1 6 5 12 9 12 4 0 6 9 4 20 -2 11 0 20 4 20 4 0 8 7 9 15 1 8
3 22 4 30 1 8 4 15 8 15 6 0 8 8 12 50 1 11 6 20 10 20 4 0 7 3 7 8 -2 13 1
32 5 32 3 0 4 -20 3 -45z"/>
</g>
</svg>
